<?xml version="1.0" standalone="no"?>
<!DOCTYPE svg PUBLIC "-//W3C//DTD SVG 20010904//EN"
 "http://www.w3.org/TR/2001/REC-SVG-20010904/DTD/svg10.dtd">
<svg version="1.0" xmlns="http://www.w3.org/2000/svg"
 width="1920.000000pt" height="1080.000000pt" viewBox="0 0 1920.000000 1080.000000"
 preserveAspectRatio="xMidYMid meet">
<metadata>
Created by potrace 1.16, written by Peter Selinger 2001-2019
</metadata>
<g transform="translate(0.000000,1080.000000) scale(0.100000,-0.100000)"
fill="#000000" stroke="none">
<path d="M4260 9233 c-24 -9 -61 -46 -71 -70 l-8 -23 -893 -2 -892 -3 -305
-347 -305 -348 -893 0 c-886 0 -893 0 -893 -20 0 -20 7 -20 908 -20 l907 1
305 349 305 350 876 0 876 0 24 -37 c28 -44 78 -62 131 -47 39 11 78 64 78
106 0 75 -83 136 -150 111z"/>
<path d="M17134 2790 l-307 -350 -877 0 -877 0 -24 38 c-40 62 -119 69 -172
16 -55 -54 -38 -140 35 -179 34 -18 40 -19 80 -5 32 11 48 24 63 52 l20 38
890 0 890 1 305 347 305 347 868 3 c859 2 867 2 867 22 0 20 -7 20 -880 20
l-879 0 -307 -350z"/>
<path d="M4109 2378 c-22 -24 -162 -183 -312 -355 l-272 -312 -877 -1 -877 0
-16 29 c-40 79 -149 84 -196 9 -29 -47 -20 -104 21 -140 56 -51 155 -30 180
38 l10 24 889 0 890 0 308 350 308 350 868 0 868 0 -3 23 -3 22 -874 3 -873 2
-39 -42z"/>
</g>
</svg>
