<?xml version="1.0" encoding="UTF-8"?>
<!DOCTYPE svg PUBLIC "-//W3C//DTD SVG 1.1//EN" "http://www.w3.org/Graphics/SVG/1.1/DTD/svg11.dtd">
<!-- Creator: CorelDRAW X7 -->
<svg xmlns="http://www.w3.org/2000/svg" xml:space="preserve" width="3000px" height="3600px" version="1.1" style="shape-rendering:geometricPrecision; text-rendering:geometricPrecision; image-rendering:optimizeQuality; fill-rule:evenodd; clip-rule:evenodd"
viewBox="0 0 3000 3600"
 xmlns:xlink="http://www.w3.org/1999/xlink"
 xmlns:sketch="http://www.bohemiancoding.com/sketch/ns">
 <defs>
  <style type="text/css">
   <![CDATA[
    .str0 {stroke:#026FBB;stroke-width:9.37559;stroke-dasharray:31.249606 31.249606}
    .fil14 {fill:none}
    .fil3 {fill:#EDF1F0}
    .fil12 {fill:#00A859}
    .fil11 {fill:#0F303F}
    .fil1 {fill:#29292A}
    .fil25 {fill:#2BA178}
    .fil18 {fill:#373435}
    .fil8 {fill:#3E3E3E}
    .fil26 {fill:#53BB7B}
    .fil16 {fill:#53BB7B}
    .fil27 {fill:#6572B5}
    .fil6 {fill:#90BC9E}
    .fil13 {fill:#A1B400}
    .fil21 {fill:#C3B69E}
    .fil20 {fill:#D2D3D5}
    .fil7 {fill:#D9D1BE}
    .fil4 {fill:#DDDBD9}
    .fil19 {fill:#E6E7E8}
    .fil2 {fill:#EDF1F0}
    .fil24 {fill:#F00004}
    .fil28 {fill:#F1625B}
    .fil0 {fill:#F3F5F7}
    .fil23 {fill:#F7F7F7}
    .fil29 {fill:#FBD833}
    .fil9 {fill:#FEFEFE}
    .fil17 {fill:#FF2241}
    .fil15 {fill:#FFD101}
    .fil5 {fill:#FFD101}
    .fil10 {fill:white}
    .fil22 {fill:#FEFEFE;fill-rule:nonzero}
   ]]>
  </style>
   <clipPath id="id0">
    <path d="M2409 853c229,0 414,-185 414,-414 0,-229 -185,-414 -414,-414 -228,0 -414,185 -414,414 0,229 186,414 414,414z"/>
   </clipPath>
   <clipPath id="id1">
    <path d="M998 1811c0,-229 -185,-414 -414,-414 -228,0 -414,185 -414,414 0,229 186,414 414,414 229,0 414,-185 414,-414z"/>
   </clipPath>
   <clipPath id="id2">
    <path d="M2830 3161c0,-229 -186,-414 -414,-414 -229,0 -414,185 -414,414 0,229 185,414 414,414 228,0 414,-185 414,-414z"/>
   </clipPath>
 </defs>
 <g id="Layer_x0020_1">
  <metadata id="CorelCorpID_0Corel-Layer"/>
  <path class="fil0" d="M2409 853c229,0 414,-185 414,-414 0,-229 -185,-414 -414,-414 -228,0 -414,185 -414,414 0,229 186,414 414,414z"/>
  <g style="clip-path:url(#id0)">
   <g id="_2015918373296">
    <path id="1" class="fil1" d="M2187 190l0 469 810 0 0 -469c0,-14 -11,-25 -25,-25l-760 0c-14,0 -25,11 -25,25z"/>
    <path class="fil2" d="M2489 730l206 0 8 68c1,11 8,20 16,26l-254 0c8,-6 14,-15 16,-26l8 -68z"/>
    <polygon class="fil3" points="2773,824 2773,856 2411,856 2411,824 2447,824 2737,824 "/>
    <polygon class="fil4" points="2695,730 2698,760 2485,760 2489,730 "/>
    <path class="fil2" d="M2997 659l-810 0 0 53c0,14 11,26 25,26l760 0c14,0 25,-12 25,-26l0 -53z"/>
    <polygon class="fil5" points="2237,218 2946,218 2946,605 2237,605 "/>
    <path class="fil6" d="M2592 719c-11,0 -20,-9 -20,-21 0,-11 9,-20 20,-20 11,0 20,9 20,20 0,12 -9,21 -20,21z"/>
    <polygon class="fil7" points="2946,247 2238,247 2238,218 2946,218 "/>
    <path class="fil1" d="M2345 858c0,-18 14,-31 31,-31l431 0c18,0 31,13 31,31l-493 0z"/>
    <path class="fil8" d="M2930 361l-469 0c-4,0 -7,3 -7,7 0,4 3,7 7,7l469 0c3,0 7,-3 7,-7 0,-4 -4,-7 -7,-7z"/>
    <path class="fil9" d="M2407 361l-143 0c-4,0 -7,3 -7,7 0,4 3,7 7,7l143 0c4,0 7,-3 7,-7 0,-4 -3,-7 -7,-7z"/>
    <path class="fil9" d="M2415 263l-151 0c-4,0 -7,3 -7,7 0,4 3,7 7,7l151 0c4,0 7,-3 7,-7 0,-4 -3,-7 -7,-7z"/>
    <path class="fil9" d="M2930 410l-65 0c-4,0 -7,3 -7,7 0,4 3,7 7,7l65 0c3,0 7,-3 7,-7 0,-4 -4,-7 -7,-7z"/>
    <path class="fil8" d="M2811 410l-249 0c-4,0 -7,3 -7,7 0,4 3,7 7,7l249 0c4,0 7,-3 7,-7 0,-4 -3,-7 -7,-7z"/>
    <path class="fil8" d="M2508 410l-244 0c-4,0 -7,3 -7,7 0,4 3,7 7,7l244 0c4,0 7,-3 7,-7 0,-4 -3,-7 -7,-7z"/>
    <path class="fil9" d="M2930 458l-178 0c-4,0 -7,4 -7,7 0,4 3,8 7,8l178 0c3,0 7,-4 7,-8 0,-3 -4,-7 -7,-7z"/>
    <path class="fil8" d="M2698 458l-228 0c-3,0 -7,4 -7,7 0,4 4,8 7,8l228 0c4,0 7,-4 7,-8 0,-3 -3,-7 -7,-7z"/>
    <path class="fil9" d="M2413 458l-149 0c-4,0 -7,4 -7,7 0,4 3,8 7,8l149 0c4,0 7,-4 7,-8 0,-3 -3,-7 -7,-7z"/>
    <path class="fil8" d="M2930 507l-666 0c-4,0 -7,3 -7,7 0,4 3,7 7,7l666 0c3,0 7,-3 7,-7 0,-4 -4,-7 -7,-7z"/>
    <path class="fil9" d="M2930 556l-276 0c-4,0 -7,3 -7,7 0,4 3,7 7,7l276 0c3,0 7,-3 7,-7 0,-4 -4,-7 -7,-7z"/>
    <path class="fil8" d="M2600 556l-130 0c-3,0 -7,3 -7,7 0,4 3,7 7,7l130 0c4,0 7,-3 7,-7 0,-4 -3,-7 -7,-7z"/>
    <path class="fil9" d="M2415 556l-151 0c-4,0 -7,3 -7,7 0,4 3,7 7,7l151 0c4,0 7,-3 7,-7 0,-4 -3,-7 -7,-7z"/>
    <path class="fil8" d="M2514 312l-130 0c-4,0 -7,3 -7,7 0,4 3,7 7,7l130 0c4,0 7,-3 7,-7 0,-4 -3,-7 -7,-7z"/>
    <path class="fil8" d="M2930 312l-360 0c-4,0 -8,3 -8,7 0,4 4,7 8,7l360 0c3,0 7,-3 7,-7 0,-4 -4,-7 -7,-7z"/>
    <polygon class="fil10" points="2333,468 2322,459 2396,365 2407,374 "/>
    <polygon class="fil10" points="2480,468 2396,375 2407,365 2490,458 "/>
    <polygon class="fil10" points="2491,467 2479,459 2577,324 2588,332 "/>
    <polygon class="fil10" points="2703,515 2577,332 2589,324 2715,506 "/>
    <path class="fil11" d="M2402 392c-13,0 -23,-10 -23,-22 0,-13 10,-23 23,-23 12,0 22,10 22,23 0,12 -10,22 -22,22z"/>
    <path class="fil10" d="M2402 381c-6,0 -11,-5 -11,-11 0,-6 5,-11 11,-11 6,0 11,5 11,11 0,6 -5,11 -11,11z"/>
    <path class="fil11" d="M2583 361c-19,0 -33,-15 -33,-33 0,-18 14,-33 33,-33 18,0 33,15 33,33 0,18 -15,33 -33,33z"/>
    <path class="fil10" d="M2583 339c-6,0 -11,-5 -11,-11 0,-6 5,-11 11,-11 6,0 10,5 10,11 0,6 -4,11 -10,11z"/>
    <path class="fil11" d="M2327 493c-16,0 -29,-14 -29,-30 0,-16 13,-30 29,-30 17,0 30,14 30,30 0,16 -13,30 -30,30z"/>
    <path class="fil10" d="M2327 474c-6,0 -11,-5 -11,-11 0,-6 5,-11 11,-11 6,0 11,5 11,11 0,6 -5,11 -11,11z"/>
    <path class="fil11" d="M2709 533c-13,0 -23,-10 -23,-23 0,-12 10,-22 23,-22 13,0 23,10 23,22 0,13 -10,23 -23,23z"/>
    <path class="fil10" d="M2709 521c-6,0 -11,-5 -11,-11 0,-5 5,-10 11,-10 6,0 11,5 11,10 0,6 -5,11 -11,11z"/>
    <polygon class="fil12" points="2610,547 2569,587 2459,477 2500,436 "/>
    <path class="fil12" d="M2545 402c33,33 33,87 0,120 -33,33 -87,33 -120,0 -33,-33 -33,-87 0,-120 33,-33 87,-33 120,0z"/>
    <path class="fil10" d="M2529 419c24,24 24,63 0,87 -25,24 -63,24 -88,0 -24,-24 -24,-63 0,-87 25,-24 63,-24 88,0z"/>
    <path class="fil11" d="M2485 505c-23,0 -42,-19 -42,-42 0,-23 19,-42 42,-42 23,0 42,19 42,42 0,23 -19,42 -42,42z"/>
    <path class="fil13" d="M2485 487c-13,0 -23,-11 -23,-24 0,-13 10,-23 23,-23 13,0 23,10 23,23 0,13 -10,24 -23,24z"/>
   </g>
  </g>
  <path class="fil14" d="M2409 853c229,0 414,-185 414,-414 0,-229 -185,-414 -414,-414 -228,0 -414,185 -414,414 0,229 186,414 414,414z"/>
  <path class="fil0" d="M998 1811c0,-229 -185,-414 -414,-414 -228,0 -414,185 -414,414 0,229 186,414 414,414 229,0 414,-185 414,-414z"/>
  <g style="clip-path:url(#id1)">
   <g id="_2015856890224">
    <path id="1" class="fil1" d="M350 1569l0 469 810 0 0 -469c0,-14 -11,-25 -25,-25l-760 0c-14,0 -25,11 -25,25z"/>
    <path class="fil2" d="M652 2109l206 0 8 68c1,10 7,20 16,26l-254 0c8,-6 14,-16 16,-26l8 -68z"/>
    <polygon class="fil3" points="936,2203 936,2235 574,2235 574,2203 610,2203 900,2203 "/>
    <polygon class="fil4" points="858,2109 861,2138 648,2138 652,2109 "/>
    <path class="fil2" d="M1160 2038l-810 0 0 53c0,14 11,25 25,25l760 0c14,0 25,-11 25,-25l0 -53z"/>
    <polygon class="fil15" points="400,1596 1109,1596 1109,1984 400,1984 "/>
    <path class="fil16" d="M755 2097c-11,0 -20,-9 -20,-20 0,-11 9,-20 20,-20 11,0 20,9 20,20 0,11 -9,20 -20,20z"/>
    <polygon class="fil7" points="1109,1626 401,1626 401,1596 1109,1596 "/>
    <polygon class="fil17" points="430,1626 400,1626 400,1596 430,1596 "/>
    <polygon class="fil2" points="603,1626 508,1626 508,1596 603,1596 "/>
    <polygon class="fil2" points="730,1626 635,1626 635,1596 730,1596 "/>
    <polygon class="fil7" points="401,1952 401,1653 430,1653 430,1952 "/>
    <polygon class="fil18" points="872,1853 749,1853 749,1766 872,1766 "/>
    <polygon class="fil2" points="763,1696 685,1696 685,1649 763,1649 "/>
    <polygon class="fil19" points="795,1824 766,1824 766,1795 795,1795 "/>
    <polygon class="fil9" points="826,1824 796,1824 796,1795 826,1795 "/>
    <polygon class="fil20" points="855,1824 826,1824 826,1795 855,1795 "/>
    <polygon class="fil21" points="430,1712 400,1712 400,1682 430,1682 "/>
    <path class="fil18" d="M807 1906c57,0 103,-46 103,-103 0,-57 -46,-103 -103,-103 -56,0 -102,46 -102,103 0,57 46,103 102,103zm0 -212c61,0 110,49 110,109 0,60 -49,109 -110,109 -60,0 -109,-49 -109,-109 0,-60 49,-109 109,-109z"/>
    <polygon class="fil18" points="807,1684 820,1697 807,1710 794,1697 "/>
    <polygon class="fil18" points="807,1895 820,1908 807,1921 794,1908 "/>
    <polygon class="fil18" points="715,1802 702,1815 689,1803 702,1789 "/>
    <polygon class="fil18" points="910,1692 916,1692 916,1908 910,1908 "/>
    <polygon class="fil18" points="913,1684 926,1697 913,1710 900,1697 "/>
    <polygon class="fil18" points="926,1802 913,1815 900,1803 913,1789 "/>
    <polygon class="fil18" points="913,1895 926,1908 913,1921 900,1908 "/>
    <polygon class="fil18" points="486,1690 493,1690 493,1906 486,1906 "/>
    <polygon class="fil18" points="489,1682 502,1695 489,1708 476,1695 "/>
    <polygon class="fil18" points="502,1800 489,1813 476,1800 489,1787 "/>
    <polygon class="fil18" points="489,1893 502,1906 489,1919 476,1906 "/>
    <polygon class="fil18" points="659,1691 659,1698 494,1698 494,1691 "/>
    <polygon class="fil18" points="574,1708 561,1695 574,1682 587,1695 "/>
    <polygon class="fil18" points="659,1902 659,1909 494,1909 494,1902 "/>
    <polygon class="fil18" points="574,1919 561,1906 574,1893 587,1906 "/>
    <polygon class="fil18" points="655,1690 662,1690 662,1906 655,1906 "/>
    <polygon class="fil18" points="659,1682 672,1695 659,1708 646,1695 "/>
    <polygon class="fil18" points="672,1800 659,1813 646,1800 659,1787 "/>
    <polygon class="fil18" points="659,1893 672,1906 659,1919 646,1906 "/>
    <polygon class="fil18" points="659,1865 659,1871 494,1871 494,1865 "/>
    <path class="fil18" d="M502 1868c0,-7 -6,-13 -13,-13 -7,0 -13,6 -13,13 0,7 6,13 13,13 7,0 13,-6 13,-13z"/>
    <path class="fil1" d="M508 2236c0,-17 14,-31 31,-31l431 0c17,0 31,14 31,31l-493 0z"/>
    <path class="fil22" d="M626 1830c-8,4 -16,5 -24,5 -12,0 -19,-4 -22,-11 -6,8 -14,12 -25,12 -20,0 -30,-10 -30,-28 0,-14 9,-24 28,-30 16,-5 25,-12 25,-19 0,-10 -5,-15 -15,-15 -11,0 -16,5 -16,15 0,3 0,6 2,11l-17 -3c0,-3 0,-6 0,-8 0,-15 13,-23 41,-23 26,0 39,7 39,21l0 58c0,6 2,9 6,9 1,0 3,-1 5,-2l3 8zm-48 -53c-3,2 -5,4 -8,6 -7,4 -11,11 -11,21 0,12 3,18 8,18 7,0 11,-6 11,-18l0 -27z"/>
   </g>
  </g>
  <path class="fil14" d="M998 1811c0,-229 -185,-414 -414,-414 -228,0 -414,185 -414,414 0,229 186,414 414,414 229,0 414,-185 414,-414z"/>
  <path class="fil0" d="M2830 3161c0,-229 -186,-414 -414,-414 -229,0 -414,185 -414,414 0,229 185,414 414,414 228,0 414,-185 414,-414z"/>
  <g style="clip-path:url(#id2)">
   <g id="_2015856918512">
    <path id="1" class="fil1" d="M2187 2912l0 469 810 0 0 -469c0,-14 -11,-25 -25,-25l-760 0c-14,0 -25,11 -25,25z"/>
    <path class="fil2" d="M2489 3452l206 0 8 68c2,11 8,20 16,26l-254 0c8,-6 15,-15 16,-26l8 -68z"/>
    <polygon class="fil3" points="2773,3546 2773,3578 2411,3578 2411,3546 2447,3546 2737,3546 "/>
    <polygon class="fil4" points="2695,3452 2699,3482 2485,3482 2489,3452 "/>
    <path class="fil2" d="M2997 3381l-810 0 0 53c0,14 11,25 25,25l760 0c14,0 25,-11 25,-25l0 -53z"/>
    <polygon class="fil5" points="2237,2939 2947,2939 2947,3327 2237,3327 "/>
    <path class="fil6" d="M2592 3440c-11,0 -20,-9 -20,-20 0,-11 9,-20 20,-20 11,0 20,9 20,20 0,11 -9,20 -20,20z"/>
    <polygon class="fil7" points="2947,2969 2238,2969 2238,2939 2947,2939 "/>
    <path class="fil1" d="M2345 3579c0,-17 14,-31 32,-31l431 0c17,0 31,14 31,31l-494 0z"/>
    <path class="fil10" d="M2743 3036l-177 0c-20,0 -37,17 -37,38l0 16 0 137c0,21 17,38 37,38l177 0c21,0 38,-17 38,-38l0 -137 0 -16c0,-21 -17,-38 -38,-38z"/>
    <path class="fil17" d="M2736 3065c6,0 11,-4 11,-10 0,0 0,-1 0,-1 0,-1 0,-1 0,-1 0,-6 -5,-10 -11,-10 -6,0 -10,4 -11,10 0,0 0,0 0,1 0,0 0,0 0,1 1,5 5,10 11,10z"/>
    <path class="fil12" d="M2707 3065c6,0 11,-5 11,-10 0,-1 0,-1 0,-1 0,-1 0,-1 0,-1 0,-6 -5,-10 -11,-10 -6,0 -10,4 -11,10 0,0 0,0 0,1 0,0 0,0 0,1 1,5 6,10 11,10z"/>
    <path class="fil11" d="M2566 3072l177 0c11,0 19,8 19,18l0 137c0,11 -8,19 -19,19l-177 0c-10,0 -19,-8 -19,-19l0 -137c0,-10 9,-18 19,-18z"/>
    <path class="fil11" d="M2678 3065c6,0 11,-5 11,-10 1,-1 1,-1 1,-1 0,-1 0,-1 -1,-1 0,-6 -5,-10 -11,-10 -5,0 -10,4 -11,10 0,0 0,0 0,1 0,0 0,0 0,1 1,5 6,10 11,10z"/>
    <polygon class="fil23" points="2636,3216 2684,3107 2674,3102 2625,3211 "/>
    <polygon class="fil23" points="2615,3129 2576,3167 2568,3159 2607,3121 "/>
    <polygon class="fil23" points="2607,3197 2568,3159 2576,3151 2615,3189 "/>
    <polygon class="fil23" points="2695,3129 2733,3167 2741,3159 2703,3121 "/>
    <polygon class="fil23" points="2703,3197 2741,3159 2733,3151 2695,3189 "/>
    <polygon class="fil12" points="2382,3127 2485,3127 2485,3177 2382,3177 "/>
    <polygon class="fil10" points="2344,3196 2402,3196 2402,3245 2344,3245 "/>
    <polygon class="fil10" points="2426,3196 2485,3196 2485,3245 2426,3245 "/>
    <polygon class="fil10" points="2304,3127 2362,3127 2362,3177 2304,3177 "/>
    <polygon class="fil10" points="2271,3059 2329,3059 2329,3109 2271,3109 "/>
    <polygon class="fil10" points="2409,3109 2350,3109 2350,3059 2409,3059 "/>
    <polygon class="fil10" points="2426,3059 2485,3059 2485,3109 2426,3109 "/>
    <path class="fil10" d="M2413 3143c0,0 0,0 -1,0 0,0 0,1 0,1 -1,0 -1,-1 -1,-1 -1,0 -1,0 -2,0 0,-1 -1,-1 -1,-1 -1,0 -2,-1 -2,-1 -1,0 -2,1 -2,1 -1,0 -2,0 -2,1 0,0 -1,0 -1,1 0,0 0,1 0,1 0,1 0,2 1,2 0,0 0,1 1,1 1,1 1,1 2,1 1,0 2,1 3,1 1,0 2,1 2,1 1,0 2,1 3,1 0,1 1,2 1,3 1,1 1,2 1,3 0,1 0,3 -1,4 0,1 -1,2 -2,3 -1,1 -2,1 -3,2 -2,0 -3,1 -5,1 -1,0 -2,0 -2,-1 -1,0 -2,0 -3,0 -1,-1 -2,-1 -3,-2 0,0 -1,-1 -2,-1l2 -3c0,0 0,0 1,0 0,-1 0,-1 0,-1 1,0 1,0 1,1 1,0 1,0 2,1 0,0 1,0 2,1 1,0 1,0 3,0 1,0 2,0 3,-1 1,-1 2,-2 2,-3 0,-1 -1,-2 -1,-2 0,-1 -1,-1 -2,-2 0,0 -1,0 -2,0 -1,-1 -2,-1 -2,-1 -1,0 -2,-1 -3,-1 -1,-1 -2,-1 -2,-2 -1,0 -1,-1 -2,-2 0,-1 0,-2 0,-3 0,-2 0,-3 0,-4 1,-1 1,-2 2,-2 1,-1 2,-2 3,-2 2,-1 3,-1 5,-1 1,0 3,0 4,1 2,0 3,1 4,2l-1 3z"/>
    <polygon class="fil10" points="2438,3137 2438,3142 2425,3142 2425,3150 2435,3150 2435,3154 2425,3154 2425,3163 2438,3163 2438,3167 2419,3167 2419,3137 "/>
    <path class="fil10" d="M2466 3152c0,-1 0,-3 -1,-4 0,-1 -1,-3 -2,-4 0,0 -1,-1 -3,-2 -1,0 -2,0 -3,0 -2,0 -3,0 -4,0 -2,1 -3,2 -3,2 -1,1 -2,3 -2,4 -1,1 -1,3 -1,4 0,2 0,3 1,5 0,1 1,2 2,3 0,1 1,2 3,2 1,1 2,1 4,1 1,0 2,0 3,-1 2,0 3,-1 3,-2 1,-1 2,-2 2,-3 1,-2 1,-3 1,-5zm6 0c0,2 -1,5 -1,6 -1,2 -2,4 -3,5 -2,2 -3,3 -5,3 -2,1 -4,2 -6,2 -3,0 -5,-1 -7,-2 -2,0 -3,-1 -5,-3 -1,-1 -2,-3 -3,-5 0,-1 -1,-4 -1,-6 0,-2 1,-4 1,-6 1,-2 2,-3 3,-5 2,-1 3,-2 5,-3 2,-1 4,-1 7,-1 2,0 4,0 6,1 2,1 3,2 5,3 1,2 2,3 3,5 0,2 1,4 1,6z"/>
   </g>
  </g>
  <path class="fil14" d="M2830 3161c0,-229 -186,-414 -414,-414 -229,0 -414,185 -414,414 0,229 185,414 414,414 228,0 414,-185 414,-414z"/>
  <path id="Page-1-Copy" class="fil14 str0" d="M2409 2756l0 -113c0,-84 -55,-152 -122,-152l-1579 0c-67,0 -122,-69 -122,-153l0 -113" sketch:type="MSShapeGroup"/>
  <path id="Page-1-Copy_0" class="fil14 str0" d="M2409 866l0 112c0,83 -55,151 -122,151l-1579 0c-67,0 -122,67 -122,150l0 112" sketch:type="MSShapeGroup"/>
  <path class="fil19" d="M1907 3350c-14,-38 -40,-66 -119,-66 -78,0 -104,28 -119,66l1 1c0,5 1,9 4,13l0 0 3 3 0 1 3 2 2 1 2 1 3 1 2 1 5 0 189 0 5 0 2 -1 2 -1 3 -1 1 -1 4 -2 0 -1c5,-4 7,-10 7,-17z"/>
  <path class="fil17" d="M2131 3233c0,13 -9,23 -22,23l-18 0c-12,0 -22,-10 -22,-23l0 -72c0,-12 10,-22 22,-22l18 0c13,0 22,10 22,22l0 72zm-10 -134l-52 0 0 -35 -216 0 0 268 216 0 0 -32 52 0c30,0 54,-24 54,-54l0 -93c0,-30 -24,-54 -54,-54z"/>
  <path class="fil24" d="M1853 3331c14,12 15,26 23,43l168 0c7,-17 9,-31 23,-43l-214 0z"/>
  <path class="fil25" d="M221 1831c8,43 9,84 3,115 -4,-10 -8,-19 -14,-29 0,0 0,0 0,0 -21,-71 -58,-126 -93,-147 2,-1 4,-2 6,-3 30,-11 67,15 98,64z"/>
  <path class="fil26" d="M26 1807c39,-33 115,4 169,85 5,8 11,17 15,25 6,10 10,19 14,29 -1,7 -3,13 -5,19l-43 0c-8,-19 -18,-38 -31,-57 -37,-56 -85,-91 -124,-96 2,-2 3,-3 5,-5z"/>
  <path class="fil26" d="M261 1794c10,35 16,68 17,98 -6,28 -15,53 -26,73l-33 0c2,-6 4,-12 5,-19 6,-31 5,-72 -3,-115 -3,-13 -7,-27 -11,-41 -21,-70 -58,-125 -93,-146 2,-1 4,-2 6,-3 45,-17 106,51 138,153z"/>
  <path class="fil26" d="M281 1878c13,-65 8,-125 -10,-159 2,1 4,1 6,1 41,10 59,94 41,187 -4,21 -10,40 -17,58l-49 0c11,-20 20,-45 26,-73 1,-4 2,-9 3,-14z"/>
  <path class="fil17" d="M167 1965c5,0 18,0 30,0l1 0c12,0 29,0 38,0 9,0 26,0 38,0l6 0c12,0 26,0 32,0 6,0 10,10 9,21l-11 133c-2,11 -12,21 -24,21l-91 0c-12,0 -22,-10 -23,-21l-12 -133c-1,-11 2,-21 7,-21z"/>
  <path class="fil27" d="M2187 532l-339 0c-18,0 -47,22 -47,50 0,28 14,50 32,50l354 0c0,-7 -1,-100 0,-100z"/>
  <path class="fil9" d="M1818 582c0,20 10,36 23,36l345 0 0 -72 -345 0c-13,0 -23,16 -23,36z"/>
  <polygon class="fil28" points="1874,660 1900,643 1927,660 1927,584 1874,584 "/>
  <polygon class="fil17" points="1843,532 2187,532 2187,451 1843,451 "/>
  <polygon class="fil29" points="2142,521 2169,521 2169,462 2142,462 "/>
  <polygon class="fil29" points="1879,521 1906,521 1906,462 1879,462 "/>
  <path class="fil8" d="M2043 483l-115 0c-5,0 -9,4 -9,9 0,5 4,9 9,9l115 0c5,0 9,-4 9,-9 0,-5 -4,-9 -9,-9z"/>
  <path class="fil8" d="M2115 483l-31 0c-5,0 -9,4 -9,9 0,5 4,9 9,9l31 0c5,0 9,-4 9,-9 0,-5 -4,-9 -9,-9z"/>
 </g>
</svg>
